<svg aria-hidden="true" style="position: absolute; width: 0; height: 0; overflow: hidden;" version="1.1" xmlns="http://www.w3.org/2000/svg" xmlns:xlink="http://www.w3.org/1999/xlink">
<defs>
<symbol id="icon-hero" viewBox="0 0 36 32">
<title>hero</title>
<path fill="#91da58" style="fill: var(--color1, #91da58)" d="M4.59 27.126c-0.455 0.42-0.757 0.94-0.952 1.414-0.16-0.509-0.426-1.094-0.881-1.585-1.041-1.13-2.697-1.295-2.697-1.295s0.059 1.65 1.106 2.786c0.662 0.722 1.573 1.053 2.153 1.195-0.018 0.118-0.030 0.189-0.030 0.189s1.662-0.053 2.786-1.106c1.124-1.059 1.301-2.703 1.301-2.703s-1.65 0.059-2.786 1.106v0z"></path>
<path fill="#3f3d56" style="fill: var(--color2, #3f3d56)" d="M5.743 31.976h-4.158c-0.16 0-0.308-0.095-0.379-0.242l-0.899-1.863c-0.101-0.213-0.012-0.467 0.195-0.574 0.059-0.030 0.124-0.041 0.183-0.041h5.956c0.237 0 0.426 0.189 0.426 0.426 0 0.065-0.012 0.124-0.041 0.183l-0.905 1.863c-0.071 0.154-0.219 0.248-0.379 0.248z"></path>
<path fill="#ffb8b8" style="fill: var(--color3, #ffb8b8)" d="M26.399 8.382c0.869-0.627 1.431-1.65 1.431-2.804 0-1.911-1.544-3.46-3.454-3.46s-3.448 1.55-3.448 3.46c0 0.917 0.361 1.757 0.946 2.372 0.136 1.355 0.349 4.395-0.426 4.821-1 0.55 5.962 0.603 5.962 0.603s-1.207-3.318-1.011-4.992v0z"></path>
<path fill="#ffb8b8" style="fill: var(--color3, #ffb8b8)" d="M28.185 29.397c0 0-0.225 0.071-0.586 0.183-0.804 0.242-2.289 0.645-3.555 0.728-1.082 0.071-2.005-0.095-2.171-0.804-0.071-0.308 0.030-0.556 0.254-0.763 0.668-0.615 2.401-0.834 3.774-0.917 0.39-0.024 0.745-0.030 1.047-0.035 0.503-0.006 0.84 0.006 0.84 0.006l0.006 0.030 0.39 1.573z"></path>
<path fill="#2f2e41" style="fill: var(--color4, #2f2e41)" d="M21.501 2.301l-0.645-0.254c0 0 1.355-1.485 3.235-1.36l-0.526-0.586c0 0 1.295-0.521 2.467 0.84 0.615 0.716 1.325 1.55 1.769 2.502h0.698l-0.284 0.639 1.006 0.639-1.041-0.118c0.059 0.349 0.071 0.704 0.030 1.053s-0.225 0.674-0.497 0.893c0 0-0.804-1.662-0.804-1.922v0.645c0 0-0.645-0.586-0.645-0.976l-0.349 0.455-0.177-0.71-2.183 0.716 0.349-0.586-1.355 0.195 0.526-0.71c0 0-1.532 0.84-1.585 1.556-0.059 0.71-0.503 1.384-0.503 1.384s-1.189-3.33 0.515-4.294v0z"></path>
<path fill="#ffb8b8" style="fill: var(--color3, #ffb8b8)" d="M24.429 31.657c-0.864 1.071-4.436-1.171-5.678-2.005-0.272-0.183-0.432-0.302-0.432-0.302l1.142-1.526 0.361-0.485c0 0 0.319 0.166 0.804 0.455 0.012 0.006 0.035 0.024 0.053 0.030 0.408 0.242 0.929 0.556 1.449 0.917 0.716 0.491 1.449 1.047 1.916 1.567 0.461 0.515 0.668 0.994 0.384 1.349z"></path>
<path fill="#d0cde1" style="fill: var(--color5, #d0cde1)" d="M33.958 16.828c-0.101-0.254-0.207-0.497-0.302-0.733-0.627-1.491-1.118-2.579-1.165-2.679 0-0.006 0-0.012 0.006-0.018l-5.773-2.325c0 0-1.136 0.763-2.591 0.864 0 0-1.757-0.266-2.129-1.136l-5.282 2.336c0 0 0 0.024 0.006 0.053v0.012h-0.018c0 0-0.917 0.87-1.26 2.845-0.012 0.089-0.030 0.177-0.041 0.272l-2.91 6.489c-0.177 0.396-0.166 0.858 0.024 1.248 0.337 0.686 0.722 1.355 1.165 1.993 0.438 0.645 0.935 1.236 1.502 1.78 0.651 0.609 1.396 1.13 2.23 1.42l0.349 0.272 0.485 0.373c0.083 0.083 0.177 0.154 0.278 0.213l0.189 0.148c0-0.071 0-0.136 0-0.201 0.018-0.118 0.035-0.237 0.053-0.361 0.302 0.556 1.213 0.769 1.739 1.047 0.905 0.485 1.916 1.041 2.957 1.159 0.343 0.035 0.739 0 0.935-0.284 0.13-0.183 0.13-0.432 0.065-0.651s-0.195-0.408-0.331-0.591c0.905-0.195 1.816-0.396 2.721-0.591 0.225-0.053 0.556-0.095 0.763 0.053 0.012 0.006 0.024 0.018 0.035 0.035 0.077 0.325 0.124 0.55 0.124 0.55s0.13-0.065 0.355-0.177c0.497-0.166 0.988-0.343 1.378-0.698 0.083-0.041 0.16-0.083 0.242-0.124 0.887-0.455 1.952-1.017 2.969-1.585 0.426-0.242 0.84-0.473 1.236-0.71 1.059-0.621 1.934-1.201 2.283-1.585 0.757-0.822-0.929-5.424-2.289-8.713zM17.112 23.991l0.899-2.94c0.13 1.313 0.13 2.638 0.035 3.963l-0.035-0.041-0.899-0.982zM30.231 25.476c0.142-1.124 0.302-2.242 0.485-3.36l1.017 2.431-1.502 0.929z"></path>
<path fill="#92c36b" style="fill: var(--color6, #92c36b)" d="M21.418 19.567l0.597 0.704c0.219-0.041 0.455-0.095 0.698-0.148l-0.177-0.55 0.426 0.491c2.538-0.621 5.684-1.84 5.684-1.84s-3.395 0.248-5.933-0.308c-1.118-0.248-2.277 0.314-2.739 1.36-0.272 0.615-0.225 1.142 0.722 1.142 0.319-0.006 0.645-0.035 0.958-0.089l-0.237-0.763z"></path>
<path fill="#3f3d56" style="fill: var(--color2, #3f3d56)" d="M35.082 31.083c0-0.349-0.284-0.639-0.568-0.633h-0.615c0.012-0.047 0.024-0.101 0.024-0.154v-10.712c0-0.296-0.237-0.532-0.526-0.532h-7.831v-0.16h-3.543v0.16h-7.855c-0.29 0-0.526 0.237-0.526 0.526v10.724c0 0.053 0.006 0.106 0.024 0.154h-0.201c-0.343 0-0.627 0.278-0.627 0.633v0.284c0 0.071 0.012 0.154 0.041 0.225 0.006 0.035 0.030 0.065 0.041 0.095 0.112 0.189 0.319 0.308 0.544 0.308h20.992c0.219 0 0.426-0.118 0.544-0.308 0.012-0.030 0.030-0.065 0.041-0.095 0.030-0.071 0.041-0.148 0.041-0.225v-0.29z"></path>
<path fill="#d0cde1" style="fill: var(--color5, #d0cde1)" d="M25.174 24.63c0-0.68-0.556-1.236-1.236-1.236-0.515 0-0.958 0.319-1.142 0.769-0.248 0.213-0.408 0.532-0.408 0.887 0 0.651 0.526 1.177 1.177 1.177 0.408 0 0.763-0.207 0.976-0.521 0.379-0.213 0.633-0.615 0.633-1.077v0zM24.66 25.482c0.053-0.136 0.083-0.278 0.083-0.432 0-0.651-0.526-1.177-1.177-1.177-0.201 0-0.39 0.053-0.562 0.142 0.201-0.302 0.544-0.503 0.935-0.503 0.615 0 1.118 0.503 1.118 1.118 0 0.343-0.154 0.645-0.396 0.852v0z"></path>
</symbol>
<symbol id="icon-about" viewBox="0 0 32 32">
<title>about</title>
<path d="M24.209 8.416c0 4.37-3.675 7.912-8.209 7.912s-8.209-3.542-8.209-7.912c0-4.37 3.675-7.912 8.209-7.912s8.209 3.542 8.209 7.912zM16 19.112c2.203 0 4.331-0.775 5.983-2.18 2.955 1.149 5.488 3.121 7.272 5.666s2.741 5.545 2.745 8.616v0.604h-32v-0.604c0.004-3.072 0.96-6.072 2.745-8.616s4.317-4.517 7.273-5.666c1.652 1.405 3.779 2.18 5.983 2.18z"></path>
</symbol>
<symbol id="icon-logo" viewBox="0 0 29 32">
<title>logo</title>
<path d="M14.481 31.662l-10.979-10.979 1.591-1.591 9.389 9.388 11.044-11.043-11.053-11.053-6.070 6.118-5.032-5.032 7.462-7.47 1.592 1.59-5.873 5.88 1.845 1.845 6.070-6.118 14.24 14.241-14.225 14.225zM14.502 25.335l-14.502-14.502 1.591-1.591 6.678 6.678 6.239-6.23 7.82 7.819-7.825 7.825zM9.859 17.511l4.643 4.643 4.644-4.644-4.64-4.639-4.647 4.64zM14.509 15.495l-1.984 1.984 1.984 1.984 1.984-1.984-1.984-1.984z"></path>
</symbol>
<symbol id="icon-contact" viewBox="0 0 32 32">
<title>contact</title>
<path d="M23.467 19.2c-2.133 2.133-2.133 4.267-4.267 4.267s-4.267-2.133-6.4-4.267c-2.133-2.133-4.267-4.267-4.267-6.4s2.133-2.133 4.267-4.267c2.133-2.133-4.267-8.533-6.4-8.533s-6.4 6.4-6.4 6.4c0 4.267 4.383 12.917 8.533 17.067s12.8 8.533 17.067 8.533c0 0 6.4-4.267 6.4-6.4s-6.4-8.533-8.533-6.4z"></path>
</symbol>
<symbol id="icon-projects" viewBox="0 0 35 32">
<title>projects</title>
<path d="M34.169 27.807l-11.38-17.939v-4.931h2.12c0.374 0 0.732-0.148 0.996-0.413s0.413-0.623 0.413-0.996v-2.12c0-0.185-0.037-0.368-0.107-0.539s-0.175-0.326-0.305-0.457c-0.131-0.131-0.286-0.235-0.457-0.305s-0.354-0.107-0.539-0.107h-14.806c-0.374 0-0.733 0.148-0.999 0.412s-0.415 0.622-0.417 0.997v2.12c0.002 0.374 0.152 0.733 0.417 0.997s0.624 0.412 0.999 0.412h2.113v4.931l-10.97 17.98c-0.25 0.416-0.384 0.89-0.39 1.375s0.117 0.963 0.356 1.384c0.239 0.422 0.587 0.772 1.006 1.016s0.896 0.371 1.381 0.37h28.218c0.491 0.006 0.975-0.12 1.4-0.366s0.777-0.601 1.017-1.029c0.241-0.428 0.362-0.913 0.35-1.404s-0.155-0.97-0.415-1.386zM7.38 27.124l7.331-12.194c1.115 0.103 2.011 0.431 2.353 1.122 0.964 1.922 2.052 2.496 3.276 1.799 0.342-0.198 0.766-0.451 1.211-0.752l6.155 10.053-20.326-0.027z"></path>
</symbol>
<symbol id="icon-skills" viewBox="0 0 32 32">
<title>tools</title>
<path d="M31.297 24.112l-7.135-7.135c-1.408-1.408-3.51-1.682-5.204-0.847l-6.496-6.496v-3.784l-7.8-5.85-3.9 3.9 5.85 7.8h3.784l6.496 6.496c-0.829 1.694-0.561 3.796 0.847 5.204l7.135 7.135c0.89 0.89 2.328 0.89 3.211 0l3.211-3.211c0.884-0.89 0.884-2.328 0-3.211zM20.975 13.71c1.724 0 3.345 0.67 4.564 1.889l1.182 1.182c0.963-0.42 1.877-1.005 2.669-1.798 2.261-2.261 3.028-5.441 2.309-8.33-0.134-0.548-0.823-0.737-1.225-0.335l-4.534 4.534-4.137-0.689-0.689-4.137 4.534-4.534c0.402-0.402 0.207-1.091-0.347-1.231-2.888-0.713-6.069 0.055-8.324 2.309-1.737 1.737-2.553 4.028-2.51 6.313l5.003 5.003c0.494-0.116 1.005-0.177 1.505-0.177zM14.644 18.707l-3.455-3.455-9.286 9.292c-1.523 1.523-1.523 3.991 0 5.515s3.991 1.523 5.515 0l7.531-7.531c-0.463-1.213-0.603-2.535-0.305-3.821zM4.663 28.761c-0.804 0-1.462-0.658-1.462-1.462 0-0.81 0.652-1.462 1.462-1.462s1.462 0.652 1.462 1.462c0 0.804-0.652 1.462-1.462 1.462z"></path>
</symbol>
<symbol id="icon-external-link" viewBox="0 0 24 28">
<title>external-link</title>
<path d="M20 14.5v-7.5c0-0.547-0.453-1-1-1h-7.5c-0.406 0-0.766 0.25-0.922 0.609-0.156 0.375-0.078 0.812 0.219 1.094l2.25 2.25-8.344 8.344c-0.391 0.391-0.391 1.016 0 1.406l1.594 1.594c0.391 0.391 1.016 0.391 1.406 0l8.344-8.344 2.25 2.25c0.187 0.203 0.438 0.297 0.703 0.297 0.125 0 0.266-0.031 0.391-0.078 0.359-0.156 0.609-0.516 0.609-0.922zM24 6.5v15c0 2.484-2.016 4.5-4.5 4.5h-15c-2.484 0-4.5-2.016-4.5-4.5v-15c0-2.484 2.016-4.5 4.5-4.5h15c2.484 0 4.5 2.016 4.5 4.5z"></path>
</symbol>
<symbol id="icon-sun" viewBox="0 0 32 32">
<title>sun</title>
<path d="M16 26c1.105 0 2 0.895 2 2v2c0 1.105-0.895 2-2 2s-2-0.895-2-2v-2c0-1.105 0.895-2 2-2zM16 6c-1.105 0-2-0.895-2-2v-2c0-1.105 0.895-2 2-2s2 0.895 2 2v2c0 1.105-0.895 2-2 2zM30 14c1.105 0 2 0.895 2 2s-0.895 2-2 2h-2c-1.105 0-2-0.895-2-2s0.895-2 2-2h2zM6 16c0 1.105-0.895 2-2 2h-2c-1.105 0-2-0.895-2-2s0.895-2 2-2h2c1.105 0 2 0.895 2 2zM25.899 23.071l1.414 1.414c0.781 0.781 0.781 2.047 0 2.828s-2.047 0.781-2.828 0l-1.414-1.414c-0.781-0.781-0.781-2.047 0-2.828s2.047-0.781 2.828 0zM6.101 8.929l-1.414-1.414c-0.781-0.781-0.781-2.047 0-2.828s2.047-0.781 2.828 0l1.414 1.414c0.781 0.781 0.781 2.047 0 2.828s-2.047 0.781-2.828 0zM25.899 8.929c-0.781 0.781-2.047 0.781-2.828 0s-0.781-2.047 0-2.828l1.414-1.414c0.781-0.781 2.047-0.781 2.828 0s0.781 2.047 0 2.828l-1.414 1.414zM6.101 23.071c0.781-0.781 2.047-0.781 2.828 0s0.781 2.047 0 2.828l-1.414 1.414c-0.781 0.781-2.047 0.781-2.828 0s-0.781-2.047 0-2.828l1.414-1.414z"></path>
<path d="M16 8c-4.418 0-8 3.582-8 8s3.582 8 8 8c4.418 0 8-3.582 8-8s-3.582-8-8-8zM16 21c-2.761 0-5-2.239-5-5s2.239-5 5-5 5 2.239 5 5-2.239 5-5 5z"></path>
</symbol>
<symbol id="icon-moon" viewBox="0 0 32 32">
<title>moon</title>
<path d="M21.866 21.447c-3.117 3.12-8.193 3.12-11.313 0s-3.12-8.195 0-11.314c0.826-0.824 1.832-1.453 2.989-1.863 0.365-0.128 0.768-0.035 1.039 0.237 0.274 0.273 0.366 0.677 0.237 1.039-0.784 2.211-0.25 4.604 1.391 6.245 1.638 1.639 4.031 2.172 6.245 1.391 0.362-0.129 0.767-0.036 1.039 0.237 0.273 0.271 0.365 0.676 0.236 1.039-0.408 1.157-1.038 2.164-1.863 2.989zM11.967 11.547c-2.34 2.34-2.34 6.147 0 8.486 2.5 2.501 6.758 2.276 8.937-0.51-2.247 0.141-4.461-0.671-6.109-2.318s-2.458-3.861-2.318-6.108c-0.18 0.141-0.35 0.29-0.51 0.451z"></path>
</symbol>
</defs>
</svg>
